HIERARCHY
ROOT SpineBase
{
  OFFSET 0.000000 0.000000 0.000000
  CHANNELS 6 Xposition Yposition Zposition Zrotation Xrotation Yrotation
  JOINT SpineMid
  {
    OFFSET 0.000000 27.076848 0.000000
    CHANNELS 3 Zrotation Xrotation Yrotation
    JOINT SpineShoulder
    {
      OFFSET -0.011849 20.171027 -0.743495
      CHANNELS 3 Zrotation Xrotation Yrotation
      JOINT Neck
      {
        OFFSET -0.029863 6.700996 -0.537521
        CHANNELS 3 Zrotation Xrotation Yrotation
        JOINT Head
        {
          OFFSET -2.859585 12.363007 1.043445
          CHANNELS 3 Zrotation Xrotation Yrotation
          End Site
          {
            OFFSET 0 0 0
          }
        }
      }
      JOINT ShoulderLeft
      {
        OFFSET -13.345854 -3.865385 4.144392
        CHANNELS 3 Zrotation Xrotation Yrotation
        JOINT ElbowLeft
        {
          OFFSET -0.713185 -22.976985 0.635638
          CHANNELS 3 Zrotation Xrotation Yrotation
          JOINT WristLeft
          {
            OFFSET -0.392393 -19.314795 -5.969682
            CHANNELS 3 Zrotation Xrotation Yrotation
            JOINT HandLeft
            {
              OFFSET 0.726049 -5.663062 -1.851455
              CHANNELS 3 Zrotation Xrotation Yrotation
              JOINT HandTipLeft
              {
                OFFSET 0.025000 -5.976181 -1.436854
                CHANNELS 3 Zrotation Xrotation Yrotation
                End Site
                {
                  OFFSET 0 0 0
                }
              }
              JOINT ThumbLeft
              {
                OFFSET -3.642888 0.739778 -1.197332
                CHANNELS 3 Zrotation Xrotation Yrotation
                End Site
                {
                  OFFSET 0 0 0
                }
              }
            }
          }
        }
      }
      JOINT ShoulderRight
      {
        OFFSET 11.470307 -2.793704 -6.272501
        CHANNELS 3 Zrotation Xrotation Yrotation
        JOINT ElbowRight
        {
          OFFSET 4.890063 -21.482403 -2.370543
          CHANNELS 3 Zrotation Xrotation Yrotation
          JOINT WristRight
          {
            OFFSET -1.711966 -21.101606 -6.392194
            CHANNELS 3 Zrotation Xrotation Yrotation
            JOINT HandRight
            {
              OFFSET -0.311659 -5.835098 -0.777055
              CHANNELS 3 Zrotation Xrotation Yrotation
              JOINT HandTipRight
              {
                OFFSET -0.127208 -5.576269 -1.447863
                CHANNELS 3 Zrotation Xrotation Yrotation
                End Site
                {
                  OFFSET 0 0 0
                }
              }
              JOINT ThumbRight
              {
                OFFSET 2.886085 0.129289 -3.141969
                CHANNELS 3 Zrotation Xrotation Yrotation
                End Site
                {
                  OFFSET 0 0 0
                }
              }
            }
          }
        }
      }
    }
  }
  JOINT HipLeft
  {
    OFFSET -5.467486 -0.038349 -1.319105
    CHANNELS 3 Zrotation Xrotation Yrotation
    JOINT KneeLeft
    {
      OFFSET 6.136596 -30.953185 1.960531
      CHANNELS 3 Zrotation Xrotation Yrotation
      JOINT AnkleLeft
      {
        OFFSET 5.037464 -30.635734 5.973802
        CHANNELS 3 Zrotation Xrotation Yrotation
        JOINT FootLeft
        {
          OFFSET -1.409437 -2.992277 -9.397507
          CHANNELS 3 Zrotation Xrotation Yrotation
          End Site
          {
            OFFSET 0 0 0
          }
        }
      }
    }
  }
  JOINT HipRight
  {
    OFFSET 5.073321 1.700068 -4.845194
    CHANNELS 3 Zrotation Xrotation Yrotation
    JOINT KneeRight
    {
      OFFSET 5.745270 -21.150053 -3.590787
      CHANNELS 3 Zrotation Xrotation Yrotation
      JOINT AnkleRight
      {
        OFFSET 7.232193 -40.574144 7.725135
        CHANNELS 3 Zrotation Xrotation Yrotation
        JOINT FootRight
        {
          OFFSET -4.603370 -6.543919 -0.411837
          CHANNELS 3 Zrotation Xrotation Yrotation
          End Site
          {
            OFFSET 0 0 0
          }
        }
      }
    }
  }
}
MOTION
Frames: 7
Frame Time: 0.033333
25.033939 67.315718 362.433916 2.409894 1.522130 21.631852 0.286130 0.296590 -21.574779 -0.091135 0.531772 0.100878 -7.768146 1.861746 1.157246 0.000000 0.000000 0.000000 -2.023370 -4.894805 -0.143309 -5.954208 -5.379015 1.673246 -0.472646 6.849940 0.412005 -4.876344 1.796056 0.978439 0.000000 0.000000 0.000000 0.000000 0.000000 0.000000 -126.956407 49.627693 124.533894 3.400392 -19.588299 -28.735065 -0.762852 4.498805 -4.325668 -1.308096 -1.584586 7.510093 0.000000 0.000000 0.000000 0.000000 0.000000 0.000000 -2.801300 -0.525394 -21.676716 -0.000000 0.000000 0.000000 -2.012513 -1.457204 7.200772 0.000000 0.000000 0.000000 2.113635 -1.296541 -22.118177 -5.921565 -2.353589 0.016528 -2.682211 -2.153025 2.914788 0.000000 0.000000 0.000000
25.079202 67.310061 362.288607 2.464749 1.731802 22.061556 0.275900 0.332489 -22.009516 -0.041246 0.542283 0.107289 -7.232458 1.255940 0.973874 0.000000 0.000000 0.000000 -2.018438 -5.371782 -0.139792 -5.612845 -5.285077 1.560532 -0.166130 7.198125 0.277822 -2.096303 -2.398128 -0.041875 0.000000 0.000000 0.000000 0.000000 0.000000 0.000000 -126.546043 49.267862 123.367453 5.669876 -22.332755 -26.776661 -5.503733 9.061868 -5.527710 -9.643688 -1.749029 2.577855 0.000000 0.000000 0.000000 0.000000 0.000000 0.000000 -2.934835 -0.677808 -22.116178 -0.000000 0.000000 0.000000 -2.666880 2.391772 6.778750 0.000000 0.000000 0.000000 1.754090 -2.049716 -22.688503 -6.062427 -1.657559 0.209495 -4.837683 -2.825263 3.340071 0.000000 0.000000 0.000000
25.118463 67.280751 362.187851 2.540801 1.924307 22.135983 0.318500 0.356169 -22.085901 0.014938 0.547798 0.117538 -7.223877 0.713319 0.834901 0.000000 0.000000 0.000000 -2.163893 -5.878184 -0.149417 -6.106473 -4.851205 1.722927 3.967361 7.139432 -1.535630 -1.737801 -1.236766 0.293297 0.000000 0.000000 0.000000 0.000000 0.000000 0.000000 -125.976520 48.984155 121.859719 7.924590 -24.102217 -24.748576 -9.980474 13.786886 -6.334238 -9.763199 -3.494188 1.676736 0.000000 0.000000 0.000000 0.000000 0.000000 0.000000 -3.078793 -0.823337 -22.200788 -0.000000 0.000000 0.000000 -4.436418 1.392627 12.574888 0.000000 0.000000 0.000000 1.208421 -2.474094 -22.825481 -5.740113 -1.156078 0.330350 -7.032523 -3.759177 3.854783 0.000000 0.000000 0.000000
25.127164 67.234164 362.134394 2.615185 2.087767 21.995051 0.369688 0.366420 -21.945528 0.027434 0.531253 0.124495 -7.574032 0.107545 0.697125 0.000000 0.000000 0.000000 -2.278570 -6.242937 -0.157930 -6.112129 -4.472409 1.736875 7.827817 8.992944 -2.990545 1.363052 -3.129942 -0.265018 0.000000 0.000000 0.000000 0.000000 0.000000 0.000000 -125.414581 49.049853 120.745334 8.665407 -24.600576 -24.005936 -11.087347 17.213134 -5.462754 -18.288703 -4.727072 -6.217354 0.000000 0.000000 0.000000 0.000000 0.000000 0.000000 -3.207056 -0.954296 -22.069426 -0.000000 0.000000 0.000000 -5.354925 -0.514678 16.792978 0.000000 0.000000 0.000000 0.801414 -2.581129 -22.674418 -5.288774 -0.943657 0.375295 -6.982306 -5.012977 4.482332 0.000000 0.000000 0.000000
25.124030 67.191135 362.106511 2.677065 2.187301 21.555881 0.438182 0.412476 -21.506636 0.021661 0.506626 0.129507 -7.830738 -0.500643 0.548882 0.000000 0.000000 0.000000 -2.429216 -6.768760 -0.163192 -5.289635 -3.867095 1.524860 10.083562 10.936698 -3.860334 6.265634 -5.008773 -0.881712 0.000000 0.000000 0.000000 0.000000 0.000000 0.000000 -125.207340 49.869795 120.944660 7.746806 -24.161457 -24.715576 -10.913517 18.233274 -4.905690 -27.254686 -4.181499 -14.366414 0.000000 0.000000 0.000000 0.000000 0.000000 0.000000 -3.293851 -1.048447 -21.637142 -0.000000 0.000000 0.000000 -5.436312 -3.403373 19.744935 0.000000 0.000000 0.000000 0.597764 -2.205237 -22.110703 -4.749347 -1.281690 0.266375 -3.599668 -5.048132 4.464451 0.000000 0.000000 0.000000
25.100408 67.158788 362.112604 2.721959 2.255799 21.201291 0.511973 0.464699 -21.152090 -0.008078 0.447177 0.132232 -8.222539 -1.050996 0.417518 0.000000 0.000000 0.000000 -2.659721 -7.223853 -0.178266 -5.483080 -3.482573 1.658089 15.660655 14.975806 -6.146572 7.171435 -4.428451 -0.756849 0.000000 0.000000 0.000000 0.000000 0.000000 0.000000 -124.859023 51.266544 121.513982 6.136854 -22.880908 -25.930644 -10.014282 18.316154 -4.371553 -29.010100 -6.659332 -18.054828 0.000000 0.000000 0.000000 0.000000 0.000000 0.000000 -3.353991 -1.116257 -21.287574 -0.000000 0.000000 0.000000 0.097381 -16.143317 13.225728 0.000000 0.000000 0.000000 0.169585 -2.792592 -21.899494 -4.697107 -0.566238 0.441475 -1.918984 -5.910196 4.991538 0.000000 0.000000 0.000000
25.043038 67.127196 362.180297 2.727536 2.256704 20.587598 0.574815 0.532147 -20.538483 -0.058380 0.391982 0.130489 -8.814957 -1.409168 0.347974 0.000000 0.000000 0.000000 -2.791747 -7.438901 -0.188511 -5.152567 -3.189900 1.606801 20.533808 19.447971 -8.415329 6.677949 -3.038804 -0.724430 0.000000 0.000000 0.000000 0.000000 0.000000 0.000000 -124.887370 52.288696 122.453461 4.931683 -21.538488 -26.900195 -8.441282 18.284804 -3.502051 -26.565664 -7.010408 -16.236113 0.000000 0.000000 0.000000 0.000000 0.000000 0.000000 -3.347399 -1.150974 -20.674962 -0.000000 0.000000 0.000000 3.323677 -25.450600 8.997573 0.000000 0.000000 0.000000 0.209143 -2.588875 -21.229350 -4.529341 -0.722730 0.397924 -0.306279 -5.783183 4.880502 0.000000 0.000000 0.000000
